<?xml version="1.0" encoding="UTF-8" standalone="no"?>
<!-- Created with Inkscape (http://www.inkscape.org/) -->

<svg
   width="711"
   height="195"
   viewBox="0 0 188.11771 51.593782"
   version="1.1"
   id="svg5"
   inkscape:version="1.1.2 (b8e25be833, 2022-02-05)"
   sodipodi:docname="logotipoPlayerytees.svg"
   xmlns:inkscape="http://www.inkscape.org/namespaces/inkscape"
   xmlns:sodipodi="http://sodipodi.sourceforge.net/DTD/sodipodi-0.dtd"
   xmlns="http://www.w3.org/2000/svg"
   xmlns:svg="http://www.w3.org/2000/svg">
  <sodipodi:namedview
     id="namedview7"
     pagecolor="#505050"
     bordercolor="#eeeeee"
     borderopacity="1"
     inkscape:pageshadow="0"
     inkscape:pageopacity="0"
     inkscape:pagecheckerboard="0"
     inkscape:document-units="px"
     showgrid="false"
     showguides="true"
     inkscape:guide-bbox="true"
     units="px"
     inkscape:zoom="0.52347032"
     inkscape:cx="352.45551"
     inkscape:cy="391.61724"
     inkscape:window-width="1920"
     inkscape:window-height="1017"
     inkscape:window-x="-8"
     inkscape:window-y="-8"
     inkscape:window-maximized="1"
     inkscape:current-layer="layer2">
    <sodipodi:guide
       position="28.592057,264.47654"
       orientation="1,0"
       id="guide21068" />
    <sodipodi:guide
       position="183.09598,198.69174"
       orientation="1,0"
       id="guide25422" />
    <sodipodi:guide
       position="66.970924,180.49587"
       orientation="0,-1"
       id="guide28980" />
  </sodipodi:namedview>
  <defs
     id="defs2" />
  <g
     inkscape:label="TEXT"
     inkscape:groupmode="layer"
     id="layer1">
    <g
       aria-label="playerytees"
       id="text1640"
       style="font-size:27.5167px;line-height:1.25;fill:#ffffff;stroke-width:0.264583"
       transform="translate(-10.623855,-81.562053)">
      <path
         d="m 36.986549,91.481609 c 1.082324,0 2.036236,0.311856 2.861737,0.935568 0.843845,0.605367 1.495074,1.467557 1.953686,2.586569 0.476956,1.100668 0.715434,2.375609 0.715434,3.824822 0,1.430872 -0.275167,2.733322 -0.825501,3.907372 -0.550334,1.1557 -1.311629,2.07292 -2.283886,2.75167 -0.953913,0.6604 -2.036236,0.9906 -3.246971,0.9906 -1.467557,0 -2.770014,-0.30268 -3.907371,-0.90805 v 6.96172 H 28.621472 V 94.97623 l -0.0762,-2.662771 h 3.329521 l 0.04868,2.036236 c 0.660401,-0.752123 1.430868,-1.85914 2.311403,-2.262719 0.880535,-0.403578 1.797758,-0.605367 2.75167,-0.605367 z m -1.568452,11.997281 c 2.182992,0 3.274488,-1.53176 3.274488,-4.595289 0,-1.412524 -0.220134,-2.50402 -0.660401,-3.274487 -0.421923,-0.770468 -1.045635,-1.155702 -1.871136,-1.155702 -1.320801,0 -2.623258,0.642056 -3.907371,1.926169 v 6.659039 c 1.174046,0.29351 2.228853,0.44027 3.16442,0.44027 z"
         style="font-family:Amiko;-inkscape-font-specification:Amiko"
         id="path28484"
         sodipodi:nodetypes="sccsccscccccccsssscsccss" />
      <path
         d="m 46.094561,85.400418 h 3.632204 v 20.747592 h -3.632204 z"
         style="font-family:Amiko;-inkscape-font-specification:Amiko"
         id="path28486" />
      <path
         d="m 62.65477,106.13684 -0.02265,-1.72238 c -1.302457,1.37583 -2.870908,2.06375 -4.705355,2.06375 -1.449213,0 -2.632432,-0.37606 -3.549655,-1.12818 -0.898879,-0.75213 -1.348318,-1.74273 -1.348318,-2.97181 0,-1.59597 0.587023,-2.834218 1.761069,-3.714752 1.19239,-0.898879 2.907598,-1.348319 5.145623,-1.348319 0.807157,0 1.614313,0.03669 2.421469,0.110067 v -0.522817 c 0,-0.807157 -0.229306,-1.403352 -0.687917,-1.788586 -0.458612,-0.403578 -1.183219,-0.605367 -2.17382,-0.605367 -0.972257,0 -1.880308,0.1651 -2.724153,0.4953 -0.825501,0.311856 -1.72438,0.825501 -2.696637,1.540936 v -3.246971 c 0.843846,-0.642057 1.724381,-1.109841 2.641604,-1.403352 0.917223,-0.293511 1.926169,-0.440267 3.026837,-0.440267 2.036236,0 3.586343,0.440267 4.650322,1.320802 1.082324,0.86219 1.623486,2.127958 1.623486,3.797304 v 6.383872 l 0.0762,3.19194 z m -5.993778,-4.03378 c 0,1.06397 0.605368,1.59596 1.816103,1.59596 0.697089,0 1.35749,-0.13758 1.981202,-0.41275 0.623712,-0.29351 1.256596,-0.75212 1.898652,-1.37583 v -1.953687 h -2.641603 c -1.063979,0 -1.843619,0.155927 -2.338919,0.467787 -0.476957,0.31185 -0.715435,0.87136 -0.715435,1.67852 z"
         style="font-family:Amiko;-inkscape-font-specification:Amiko"
         id="path28488"
         sodipodi:nodetypes="ccscscscscscccsscscccsscccscs" />
      <path
         d="m 82.994473,91.784292 -8.227494,20.747588 h -3.439587 l 2.338919,-5.91609 -5.806024,-14.831498 h 3.687238 l 3.989922,10.511378 3.824821,-10.511378 z"
         style="font-family:Amiko;-inkscape-font-specification:Amiko"
         id="path28490" />
      <path
         d="m 98.266229,100.06682 h -9.988562 q 0.220133,1.651 1.210735,2.53154 1.018118,0.88053 2.696636,0.88053 1.238252,0 2.66912,-0.44027 1.458385,-0.46778 2.696637,-1.26577 h 0.110067 v 2.94429 q -1.100668,0.85302 -2.531537,1.3208 -1.403351,0.44027 -2.971803,0.44027 -2.25637,0 -3.934889,-0.90805 -1.678518,-0.90805 -2.586569,-2.61409 -0.908052,-1.70603 -0.908052,-3.989919 0,-2.228852 0.853018,-3.934888 0.880535,-1.706035 2.448987,-2.641603 1.568452,-0.935568 3.632204,-0.935568 2.008719,0 3.494621,0.908051 1.513419,0.908051 2.311403,2.614087 0.797984,1.706035 0.797984,3.989921 z m -6.604008,-5.695958 q -1.293285,0 -2.173819,0.853018 -0.853018,0.853018 -1.155702,2.366436 h 6.191258 Q 94.303824,96.021864 93.58839,95.196363 92.872956,94.370862 91.662221,94.370862 Z"
         style="font-family:Amiko;-inkscape-font-specification:Amiko"
         id="path28492" />
      <path
         d="m 109.7407,91.454092 v 3.577171 h -0.46778 q -2.1463,0 -3.49462,1.183218 v 9.933529 h -3.63221 V 94.97623 l -0.60536,-3.191938 h 3.6322 l 0.35772,1.898653 q 0.90805,-1.238252 1.651,-1.733552 0.74295,-0.495301 1.651,-0.495301 z"
         style="font-family:Amiko;-inkscape-font-specification:Amiko"
         id="path28494" />
      <path
         d="m 126.47086,91.784292 -8.2275,20.747588 h -3.43959 l 2.33892,-5.91609 -5.80602,-14.831498 h 3.68724 l 3.98992,10.511378 3.82482,-10.511378 z"
         style="font-family:Amiko;-inkscape-font-specification:Amiko"
         id="path28496" />
      <path
         d="m 133.07485,91.784292 h 3.30201 v 2.696637 h -3.30201 v 6.934211 q 0,2.09127 1.59597,2.09127 0.74295,0 1.73355,-0.52282 v 2.99932 q -0.68792,0.24765 -1.29328,0.35772 -0.57785,0.13758 -1.3208,0.13758 -4.34764,0 -4.34764,-5.06307 v -6.934211 h -2.09127 v -2.696637 h 2.09127 v -3.852338 l 3.6322,-1.265768 z"
         style="font-family:Amiko;-inkscape-font-specification:Amiko"
         id="path28498" />
      <path
         d="m 152.74928,100.06682 h -9.98856 q 0.22013,1.651 1.21073,2.53154 1.01812,0.88053 2.69664,0.88053 1.23825,0 2.66912,-0.44027 1.45838,-0.46778 2.69664,-1.26577 h 0.11006 v 2.94429 q -1.10066,0.85302 -2.53153,1.3208 -1.40336,0.44027 -2.97181,0.44027 -2.25637,0 -3.93489,-0.90805 -1.67851,-0.90805 -2.58657,-2.61409 -0.90805,-1.70603 -0.90805,-3.989919 0,-2.228852 0.85302,-3.934888 0.88054,-1.706035 2.44899,-2.641603 1.56845,-0.935568 3.6322,-0.935568 2.00872,0 3.49462,0.908051 1.51342,0.908051 2.31141,2.614087 0.79798,1.706035 0.79798,3.989921 z m -6.60401,-5.695958 q -1.29328,0 -2.17382,0.853018 -0.85301,0.853018 -1.1557,2.366436 h 6.19126 q -0.22013,-1.568452 -0.93557,-2.393953 -0.71543,-0.825501 -1.92617,-0.825501 z"
         style="font-family:Amiko;-inkscape-font-specification:Amiko"
         id="path28500" />
      <path
         d="m 169.25931,100.06682 h -9.98856 q 0.22013,1.651 1.21074,2.53154 1.01811,0.88053 2.69663,0.88053 1.23825,0 2.66912,-0.44027 1.45839,-0.46778 2.69664,-1.26577 h 0.11007 v 2.94429 q -1.10067,0.85302 -2.53154,1.3208 -1.40335,0.44027 -2.9718,0.44027 -2.25637,0 -3.93489,-0.90805 -1.67852,-0.90805 -2.58657,-2.61409 -0.90805,-1.70603 -0.90805,-3.989919 0,-2.228852 0.85301,-3.934888 0.88054,-1.706035 2.44899,-2.641603 1.56845,-0.935568 3.63221,-0.935568 2.00871,0 3.49462,0.908051 1.51341,0.908051 2.3114,2.614087 0.79798,1.706035 0.79798,3.989921 z m -6.604,-5.695958 q -1.29329,0 -2.17382,0.853018 -0.85302,0.853018 -1.15571,2.366436 h 6.19126 q -0.22013,-1.568452 -0.93557,-2.393953 -0.71543,-0.825501 -1.92616,-0.825501 z"
         style="font-family:Amiko;-inkscape-font-specification:Amiko"
         id="path28502" />
      <path
         d="m 177.26668,106.47821 q -1.43087,0 -2.80671,-0.38523 -1.37583,-0.41275 -2.58657,-1.1557 v -3.43959 q 1.32081,0.9906 2.50402,1.45838 1.18322,0.46779 2.55906,0.46779 1.40335,0 2.06375,-0.35772 0.68792,-0.35772 0.68792,-1.10067 0,-0.71543 -0.6604,-1.04563 -0.63289,-0.35772 -2.03624,-0.68792 -1.54093,-0.385234 -2.50402,-0.770468 -0.96308,-0.412751 -1.67852,-1.320802 -0.68792,-0.908051 -0.68792,-2.448986 0,-1.926169 1.56846,-3.081871 1.59597,-1.155701 4.26509,-1.155701 1.29328,0 2.39395,0.302684 1.10067,0.275167 2.25637,0.935568 v 3.357037 q -1.18322,-0.825501 -2.20134,-1.183218 -1.01812,-0.357717 -2.17382,-0.357717 -1.26577,0 -1.95368,0.3302 -0.68792,0.302684 -0.68792,0.908051 0,0.605368 0.57785,0.908051 0.60537,0.275168 1.89865,0.577851 1.54094,0.330201 2.55906,0.770468 1.04563,0.41275 1.78858,1.375835 0.74295,0.935568 0.74295,2.614088 0,1.29328 -0.74295,2.33892 -0.74295,1.01812 -2.09127,1.59597 -1.34832,0.55033 -3.05435,0.55033 z"
         style="font-family:Amiko;-inkscape-font-specification:Amiko"
         id="path28504" />
    </g>
    <g
       aria-label="INNOVATING TO TRANSFORM"
       id="text11232"
       style="font-size:10.5833px;line-height:1.25;letter-spacing:0.640292px;fill:#ffffff;stroke-width:0.264583"
       transform="translate(-10.623855,-81.032885)">
      <path
         d="m 28.483962,120.89856 v 7.40831 h 0.560915 v -7.40831 z"
         style="font-family:Gilroy;-inkscape-font-specification:Gilroy"
         id="path29062" />
      <path
         d="m 36.394973,120.89856 v 6.37115 l -4.381486,-6.37115 h -0.486832 v 7.40831 h 0.560915 v -6.37115 l 4.370903,6.37115 h 0.497415 v -7.40831 z"
         style="font-family:Gilroy;-inkscape-font-specification:Gilroy"
         id="path29064" />
      <path
         d="m 44.305995,120.89856 v 6.37115 l -4.381487,-6.37115 h -0.486831 v 7.40831 h 0.560915 v -6.37115 l 4.370902,6.37115 h 0.497415 v -7.40831 z"
         style="font-family:Gilroy;-inkscape-font-specification:Gilroy"
         id="path29066" />
      <path
         d="m 50.745936,128.42329 c 2.137827,0 3.820571,-1.70392 3.820571,-3.82058 0,-2.11666 -1.682744,-3.82057 -3.820571,-3.82057 -2.137826,0 -3.820571,1.70391 -3.820571,3.82057 0,2.11666 1.682745,3.82058 3.820571,3.82058 z m 0,-0.53975 c -1.830911,0 -3.259656,-1.4605 -3.259656,-3.28083 0,-1.82032 1.428745,-3.28082 3.259656,-3.28082 1.830911,0 3.259656,1.4605 3.259656,3.28082 0,1.82033 -1.428745,3.28083 -3.259656,3.28083 z"
         style="font-family:Gilroy;-inkscape-font-specification:Gilroy"
         id="path29068" />
      <path
         d="m 58.286533,128.30687 h 0.592665 l 2.762241,-7.40831 h -0.603248 l -2.455325,6.67806 -2.444743,-6.67806 h -0.613831 z"
         style="font-family:Gilroy;-inkscape-font-specification:Gilroy"
         id="path29070" />
      <path
         d="m 67.912033,128.30687 h 0.592665 l -2.868074,-7.40831 h -0.592665 l -2.878658,7.40831 h 0.592665 l 0.719664,-1.88383 h 3.714739 z m -4.222737,-2.41299 1.650995,-4.30741 1.650995,4.30741 z"
         style="font-family:Gilroy;-inkscape-font-specification:Gilroy"
         id="path29072" />
      <path
         d="m 74.246142,120.89856 h -5.22815 v 0.52916 h 2.328326 v 6.87915 h 0.571498 v -6.87915 h 2.328326 z"
         style="font-family:Gilroy;-inkscape-font-specification:Gilroy"
         id="path29074" />
      <path
         d="m 76.050609,120.89856 v 7.40831 h 0.560915 v -7.40831 z"
         style="font-family:Gilroy;-inkscape-font-specification:Gilroy"
         id="path29076" />
      <path
         d="m 83.961617,120.89856 v 6.37115 l -4.381486,-6.37115 h -0.486832 v 7.40831 h 0.560915 v -6.37115 l 4.370903,6.37115 h 0.497415 v -7.40831 z"
         style="font-family:Gilroy;-inkscape-font-specification:Gilroy"
         id="path29078" />
      <path
         d="m 94.052799,124.85671 h -3.714738 v 0.52917 h 3.14324 c -0.116417,1.38641 -1.206496,2.49766 -3.005657,2.49766 -1.989661,0 -3.33374,-1.4605 -3.33374,-3.28083 0,-1.82032 1.344079,-3.28082 3.291406,-3.28082 1.164163,0 2.201327,0.61383 2.688159,1.54516 l 0.497415,-0.29633 c -0.613832,-1.06891 -1.809745,-1.78858 -3.185574,-1.78858 -2.254242,0 -3.852321,1.70391 -3.852321,3.82057 0,2.11666 1.598079,3.82058 3.894655,3.82058 2.211909,0 3.577155,-1.49225 3.577155,-3.28083 z"
         style="font-family:Gilroy;-inkscape-font-specification:Gilroy"
         id="path29080" />
      <path
         d="m 104.11752,120.89856 h -5.228148 v 0.52916 h 2.328328 v 6.87915 h 0.5715 v -6.87915 h 2.32832 z"
         style="font-family:Gilroy;-inkscape-font-specification:Gilroy"
         id="path29082" />
      <path
         d="m 108.89588,128.42329 c 2.13783,0 3.82057,-1.70392 3.82057,-3.82058 0,-2.11666 -1.68274,-3.82057 -3.82057,-3.82057 -2.13783,0 -3.82057,1.70391 -3.82057,3.82057 0,2.11666 1.68274,3.82058 3.82057,3.82058 z m 0,-0.53975 c -1.83091,0 -3.25966,-1.4605 -3.25966,-3.28083 0,-1.82032 1.42875,-3.28082 3.25966,-3.28082 1.83091,0 3.25966,1.4605 3.25966,3.28082 0,1.82033 -1.42875,3.28083 -3.25966,3.28083 z"
         style="font-family:Gilroy;-inkscape-font-specification:Gilroy"
         id="path29084" />
      <path
         d="m 122.79176,120.89856 h -5.22815 v 0.52916 h 2.32833 v 6.87915 h 0.5715 v -6.87915 h 2.32832 z"
         style="font-family:Gilroy;-inkscape-font-specification:Gilroy"
         id="path29086" />
      <path
         d="m 129.27405,128.30687 h 0.64558 l -1.8415,-3.11149 c 0.94192,-0.254 1.62983,-1.10066 1.62983,-2.10608 0,-1.20649 -0.98424,-2.19074 -2.19074,-2.19074 h -2.92099 v 7.40831 h 0.56091 v -3.03741 h 2.33891 z m -4.11691,-6.87915 h 2.36008 c 0.89958,0 1.62983,0.74084 1.62983,1.66158 0,0.91017 -0.73025,1.651 -1.62983,1.651 h -2.36008 z"
         style="font-family:Gilroy;-inkscape-font-specification:Gilroy"
         id="path29088" />
      <path
         d="m 136.70882,128.30687 h 0.59267 l -2.86808,-7.40831 h -0.59266 l -2.87866,7.40831 h 0.59267 l 0.71966,-1.88383 h 3.71474 z m -4.22273,-2.41299 1.65099,-4.30741 1.651,4.30741 z"
         style="font-family:Gilroy;-inkscape-font-specification:Gilroy"
         id="path29090" />
      <path
         d="m 143.88959,120.89856 v 6.37115 l -4.38149,-6.37115 h -0.48683 v 7.40831 h 0.56091 v -6.37115 l 4.37091,6.37115 h 0.49741 v -7.40831 z"
         style="font-family:Gilroy;-inkscape-font-specification:Gilroy"
         id="path29092" />
      <path
         d="m 149.09129,128.42329 c 1.47108,0 2.43416,-0.80433 2.43416,-2.032 0,-1.28058 -1.143,-1.69333 -2.45533,-2.12724 -1.05833,-0.34925 -1.80974,-0.62442 -1.80974,-1.51341 0,-0.8255 0.64558,-1.42875 1.67216,-1.42875 1.05833,0 1.62983,0.61383 1.90499,1.28058 l 0.47625,-0.26458 c -0.35983,-0.85725 -1.16416,-1.55575 -2.38124,-1.55575 -1.25941,0 -2.24366,0.77258 -2.24366,1.98966 0,1.29117 1.11124,1.64042 2.34949,2.04258 1.13241,0.35983 1.91558,0.6985 1.91558,1.5875 0,0.84666 -0.62442,1.48166 -1.86266,1.48166 -1.21708,0 -1.9685,-0.60325 -2.2225,-1.49225 l -0.48683,0.28575 c 0.33867,1.04775 1.32291,1.74625 2.70933,1.74625 z"
         style="font-family:Gilroy;-inkscape-font-specification:Gilroy"
         id="path29094" />
      <path
         d="m 157.59497,121.42772 v -0.52916 h -4.10632 v 7.40831 h 0.56092 v -3.38666 h 3.41841 v -0.52916 h -3.41841 v -2.96333 z"
         style="font-family:Gilroy;-inkscape-font-specification:Gilroy"
         id="path29096" />
      <path
         d="m 163.00832,128.42329 c 2.13783,0 3.82057,-1.70392 3.82057,-3.82058 0,-2.11666 -1.68274,-3.82057 -3.82057,-3.82057 -2.13782,0 -3.82057,1.70391 -3.82057,3.82057 0,2.11666 1.68275,3.82058 3.82057,3.82058 z m 0,-0.53975 c -1.83091,0 -3.25965,-1.4605 -3.25965,-3.28083 0,-1.82032 1.42874,-3.28082 3.25965,-3.28082 1.83091,0 3.25966,1.4605 3.25966,3.28082 0,1.82033 -1.42875,3.28083 -3.25966,3.28083 z"
         style="font-family:Gilroy;-inkscape-font-specification:Gilroy"
         id="path29098" />
      <path
         d="m 173.56518,128.30687 h 0.64558 l -1.8415,-3.11149 c 0.94192,-0.254 1.62983,-1.10066 1.62983,-2.10608 0,-1.20649 -0.98424,-2.19074 -2.19074,-2.19074 h -2.92099 v 7.40831 h 0.56091 v -3.03741 h 2.33891 z m -4.11691,-6.87915 h 2.36008 c 0.89958,0 1.62983,0.74084 1.62983,1.66158 0,0.91017 -0.73025,1.651 -1.62983,1.651 h -2.36008 z"
         style="font-family:Gilroy;-inkscape-font-specification:Gilroy"
         id="path29100" />
      <path
         d="m 182.71444,120.89856 h -0.70908 l -2.64582,4.38149 -2.64583,-4.38149 h -0.6985 v 7.40831 h 0.56092 v -6.58281 l 2.74107,4.55082 h 0.0952 l 2.74108,-4.55082 v 6.58281 h 0.56091 z"
         style="font-family:Gilroy;-inkscape-font-specification:Gilroy"
         id="path29102" />
    </g>
  </g>
  <g
     inkscape:groupmode="layer"
     id="layer2"
     inkscape:label="LINEregistrada">
    <path
       style="fill:none;fill-opacity:1;stroke:#ffffff;stroke-width:0.397404;stroke-linecap:butt;stroke-linejoin:miter;stroke-miterlimit:4;stroke-dasharray:none;stroke-opacity:1"
       d="M 17.968196,35.471234 H 172.4721"
       id="path29195" />
    <g
       aria-label="R"
       id="text30951"
       style="font-size:4.93889px;line-height:1.25;stroke-width:0.264583"
       transform="translate(-9.565521,-80.503719)">
      <path
         d="m 187.62809,113.60957 q 0.65687,0 0.96802,0.25189 0.31609,0.24694 0.31609,0.75071 0,0.28151 -0.10372,0.46919 -0.10371,0.18768 -0.2667,0.30127 -0.15804,0.1136 -0.33584,0.17287 l 0.96802,1.58044 h -0.51858 l -0.85443,-1.45697 h -0.70132 v 1.45697 h -0.4445 v -3.52637 z m -0.0247,0.38524 h -0.50377 v 1.3088 h 0.52846 q 0.42968,0 0.62724,-0.16792 0.19755,-0.17286 0.19755,-0.50377 0,-0.34572 -0.20743,-0.48895 -0.20743,-0.14816 -0.64205,-0.14816 z"
         style="fill:#ffffff"
         id="path36421" />
    </g>
    <path
       id="path36299"
       style="fill:none;stroke:#ffffff;stroke-width:0.229724"
       d="m 181.43761,34.863177 a 3.1766441,3.1766441 0 0 1 -3.17664,3.17664 3.1766441,3.1766441 0 0 1 -3.17665,-3.17664 3.1766441,3.1766441 0 0 1 3.17665,-3.17665 3.1766441,3.1766441 0 0 1 3.17664,3.17665 z" />
  </g>
</svg>
